<mxfile host="app.diagrams.net" agent="Mozilla/5.0 (Macintosh; Intel Mac OS X 10_15_7) AppleWebKit/537.36 (KHTML, like Gecko) Chrome/141.0.0.0 Safari/537.36" version="28.2.7">
  <diagram name="Page-1" id="zScTydqHw2WFktSIYWF4">
    <mxGraphModel grid="1" page="1" gridSize="10" guides="1" tooltips="1" connect="1" arrows="1" fold="1" pageScale="1" pageWidth="827" pageHeight="1169" math="0" shadow="0">
      <root>
        <mxCell id="0" />
        <mxCell id="1" parent="0" />
        <mxCell id="ztzlu6m_4G3TFfj7xGYu-12" value="" style="edgeStyle=orthogonalEdgeStyle;rounded=0;orthogonalLoop=1;jettySize=auto;html=1;" edge="1" parent="1" source="ztzlu6m_4G3TFfj7xGYu-1" target="ztzlu6m_4G3TFfj7xGYu-6">
          <mxGeometry relative="1" as="geometry" />
        </mxCell>
        <mxCell id="ztzlu6m_4G3TFfj7xGYu-1" value="&amp;nbsp;Arduino UNO R4 WiFi&lt;div&gt;&lt;div&gt;&lt;span style=&quot;font-size: 12px;&quot;&gt;- Edge AI (TinyML)&amp;nbsp; &amp;nbsp; &amp;nbsp; &amp;nbsp;&lt;/span&gt;&lt;span style=&quot;background-color: transparent; color: light-dark(rgb(0, 0, 0), rgb(255, 255, 255));&quot;&gt;&amp;nbsp;&lt;/span&gt;&lt;/div&gt;&lt;div&gt;&lt;span style=&quot;font-size: 12px;&quot;&gt;- Sensor Acquisition&amp;nbsp; &amp;nbsp; &amp;nbsp;&lt;/span&gt;&lt;/div&gt;&lt;div&gt;&lt;span style=&quot;background-color: transparent; color: light-dark(rgb(0, 0, 0), rgb(255, 255, 255));&quot;&gt;- Actuator Control&amp;nbsp;&lt;/span&gt;&lt;/div&gt;&lt;/div&gt;" style="rounded=0;whiteSpace=wrap;html=1;align=left;fillColor=#dae8fc;strokeColor=#6c8ebf;" vertex="1" parent="1">
          <mxGeometry x="320" y="240" width="160" height="80" as="geometry" />
        </mxCell>
        <mxCell id="ztzlu6m_4G3TFfj7xGYu-8" style="edgeStyle=orthogonalEdgeStyle;rounded=0;orthogonalLoop=1;jettySize=auto;html=1;entryX=0;entryY=0.5;entryDx=0;entryDy=0;" edge="1" parent="1" source="ztzlu6m_4G3TFfj7xGYu-2" target="ztzlu6m_4G3TFfj7xGYu-1">
          <mxGeometry relative="1" as="geometry" />
        </mxCell>
        <mxCell id="ztzlu6m_4G3TFfj7xGYu-2" value="Soil1 💧" style="whiteSpace=wrap;html=1;aspect=fixed;fillColor=#d5e8d4;strokeColor=#82b366;" vertex="1" parent="1">
          <mxGeometry x="160" y="40" width="80" height="80" as="geometry" />
        </mxCell>
        <mxCell id="ztzlu6m_4G3TFfj7xGYu-9" style="edgeStyle=orthogonalEdgeStyle;rounded=0;orthogonalLoop=1;jettySize=auto;html=1;exitX=1;exitY=0.5;exitDx=0;exitDy=0;entryX=0;entryY=0.5;entryDx=0;entryDy=0;" edge="1" parent="1" target="ztzlu6m_4G3TFfj7xGYu-1">
          <mxGeometry relative="1" as="geometry">
            <mxPoint x="320" y="280" as="targetPoint" />
            <mxPoint x="160" y="200" as="sourcePoint" />
            <Array as="points">
              <mxPoint x="280" y="200" />
              <mxPoint x="280" y="280" />
            </Array>
          </mxGeometry>
        </mxCell>
        <mxCell id="ztzlu6m_4G3TFfj7xGYu-3" value="Soil2 💧" style="whiteSpace=wrap;html=1;aspect=fixed;fillColor=#d5e8d4;strokeColor=#82b366;" vertex="1" parent="1">
          <mxGeometry x="160" y="160" width="80" height="80" as="geometry" />
        </mxCell>
        <mxCell id="ztzlu6m_4G3TFfj7xGYu-10" style="edgeStyle=orthogonalEdgeStyle;rounded=0;orthogonalLoop=1;jettySize=auto;html=1;exitX=1;exitY=0.5;exitDx=0;exitDy=0;entryX=0;entryY=0.5;entryDx=0;entryDy=0;" edge="1" parent="1" target="ztzlu6m_4G3TFfj7xGYu-1">
          <mxGeometry relative="1" as="geometry">
            <mxPoint x="240" y="360" as="sourcePoint" />
          </mxGeometry>
        </mxCell>
        <mxCell id="ztzlu6m_4G3TFfj7xGYu-11" style="edgeStyle=orthogonalEdgeStyle;rounded=0;orthogonalLoop=1;jettySize=auto;html=1;exitX=1;exitY=0.5;exitDx=0;exitDy=0;entryX=0;entryY=0.5;entryDx=0;entryDy=0;" edge="1" parent="1" target="ztzlu6m_4G3TFfj7xGYu-1">
          <mxGeometry relative="1" as="geometry">
            <mxPoint x="240" y="480" as="sourcePoint" />
          </mxGeometry>
        </mxCell>
        <mxCell id="ztzlu6m_4G3TFfj7xGYu-13" value="" style="edgeStyle=orthogonalEdgeStyle;rounded=0;orthogonalLoop=1;jettySize=auto;html=1;" edge="1" parent="1" source="ztzlu6m_4G3TFfj7xGYu-6" target="ztzlu6m_4G3TFfj7xGYu-7">
          <mxGeometry relative="1" as="geometry" />
        </mxCell>
        <mxCell id="ztzlu6m_4G3TFfj7xGYu-6" value="ESP32 Gateway&lt;div&gt;&lt;span style=&quot;font-size: 12px;&quot;&gt;(WiFi Gateway)&lt;/span&gt;&lt;/div&gt;" style="rounded=0;whiteSpace=wrap;html=1;fillColor=#ffe6cc;strokeColor=#d79b00;" vertex="1" parent="1">
          <mxGeometry x="540" y="240" width="160" height="80" as="geometry" />
        </mxCell>
        <mxCell id="ztzlu6m_4G3TFfj7xGYu-7" value="ThingSpeak Cloud&lt;div&gt;&lt;span style=&quot;font-size: 12px;&quot;&gt;(IoT data storage and visualization)&lt;/span&gt;&lt;/div&gt;" style="rounded=0;whiteSpace=wrap;html=1;fillColor=#b1ddf0;strokeColor=#10739e;" vertex="1" parent="1">
          <mxGeometry x="760" y="240" width="160" height="80" as="geometry" />
        </mxCell>
        <mxCell id="ztzlu6m_4G3TFfj7xGYu-14" value="DHT&amp;nbsp; 🌡️" style="whiteSpace=wrap;html=1;aspect=fixed;fillColor=#d5e8d4;strokeColor=#82b366;" vertex="1" parent="1">
          <mxGeometry x="160" y="320" width="80" height="80" as="geometry" />
        </mxCell>
        <mxCell id="ztzlu6m_4G3TFfj7xGYu-29" value="" style="edgeStyle=orthogonalEdgeStyle;rounded=0;orthogonalLoop=1;jettySize=auto;html=1;" edge="1" parent="1" source="ztzlu6m_4G3TFfj7xGYu-15" target="ztzlu6m_4G3TFfj7xGYu-24">
          <mxGeometry relative="1" as="geometry" />
        </mxCell>
        <mxCell id="ztzlu6m_4G3TFfj7xGYu-15" value="12V/5V Power Supply (System Power)" style="whiteSpace=wrap;html=1;aspect=fixed;fillColor=#fff2cc;strokeColor=#d6b656;" vertex="1" parent="1">
          <mxGeometry x="310" y="360" width="80" height="80" as="geometry" />
        </mxCell>
        <mxCell id="ztzlu6m_4G3TFfj7xGYu-16" value="LDR&amp;nbsp; 🌡️" style="whiteSpace=wrap;html=1;aspect=fixed;fillColor=#d5e8d4;strokeColor=#82b366;" vertex="1" parent="1">
          <mxGeometry x="160" y="440" width="80" height="80" as="geometry" />
        </mxCell>
        <mxCell id="ztzlu6m_4G3TFfj7xGYu-18" value="Field Environment (Sensors)" style="text;html=1;whiteSpace=wrap;strokeColor=none;fillColor=none;align=center;verticalAlign=middle;rounded=0;fontSize=10;" vertex="1" parent="1">
          <mxGeometry x="190" y="260" width="90" height="30" as="geometry" />
        </mxCell>
        <mxCell id="ztzlu6m_4G3TFfj7xGYu-31" value="" style="edgeStyle=orthogonalEdgeStyle;rounded=0;orthogonalLoop=1;jettySize=auto;html=1;" edge="1" parent="1" source="ztzlu6m_4G3TFfj7xGYu-19" target="ztzlu6m_4G3TFfj7xGYu-24">
          <mxGeometry relative="1" as="geometry" />
        </mxCell>
        <mxCell id="ztzlu6m_4G3TFfj7xGYu-19" value="Output" style="text;html=1;whiteSpace=wrap;strokeColor=none;fillColor=none;align=center;verticalAlign=middle;rounded=0;fontSize=10;" vertex="1" parent="1">
          <mxGeometry x="440" y="320" width="60" height="40" as="geometry" />
        </mxCell>
        <mxCell id="ztzlu6m_4G3TFfj7xGYu-20" value="UART" style="text;html=1;whiteSpace=wrap;strokeColor=none;fillColor=none;align=center;verticalAlign=middle;rounded=0;fontSize=10;" vertex="1" parent="1">
          <mxGeometry x="480" y="240" width="60" height="40" as="geometry" />
        </mxCell>
        <mxCell id="ztzlu6m_4G3TFfj7xGYu-21" value="WiFi" style="text;html=1;whiteSpace=wrap;strokeColor=none;fillColor=none;align=center;verticalAlign=middle;rounded=0;fontSize=10;" vertex="1" parent="1">
          <mxGeometry x="700" y="240" width="60" height="40" as="geometry" />
        </mxCell>
        <mxCell id="ztzlu6m_4G3TFfj7xGYu-24" value="&lt;div&gt;&lt;font style=&quot;font-size: 10px;&quot;&gt;Peristaltic Pump (Actuator)&lt;/font&gt;&lt;/div&gt;&lt;div&gt;&lt;font style=&quot;font-size: 10px;&quot;&gt;Driven via TIP120 Transistor (D8)&lt;/font&gt;&lt;/div&gt;" style="whiteSpace=wrap;html=1;aspect=fixed;fillColor=#bac8d3;strokeColor=#23445d;" vertex="1" parent="1">
          <mxGeometry x="414" y="360" width="80" height="80" as="geometry" />
        </mxCell>
        <mxCell id="ztzlu6m_4G3TFfj7xGYu-32" style="edgeStyle=orthogonalEdgeStyle;rounded=0;orthogonalLoop=1;jettySize=auto;html=1;exitX=0.75;exitY=1;exitDx=0;exitDy=0;entryX=0.341;entryY=-0.035;entryDx=0;entryDy=0;entryPerimeter=0;" edge="1" parent="1" source="ztzlu6m_4G3TFfj7xGYu-1" target="ztzlu6m_4G3TFfj7xGYu-24">
          <mxGeometry relative="1" as="geometry" />
        </mxCell>
        <mxCell id="ztzlu6m_4G3TFfj7xGYu-36" style="edgeStyle=orthogonalEdgeStyle;rounded=0;orthogonalLoop=1;jettySize=auto;html=1;exitX=0.75;exitY=0;exitDx=0;exitDy=0;entryX=0.315;entryY=0.986;entryDx=0;entryDy=0;entryPerimeter=0;" edge="1" parent="1" source="ztzlu6m_4G3TFfj7xGYu-15" target="ztzlu6m_4G3TFfj7xGYu-1">
          <mxGeometry relative="1" as="geometry" />
        </mxCell>
        <mxCell id="ztzlu6m_4G3TFfj7xGYu-37" value="&lt;font style=&quot;font-size: 10px;&quot;&gt;5V DC Input&lt;/font&gt;" style="text;html=1;whiteSpace=wrap;strokeColor=none;fillColor=none;align=center;verticalAlign=middle;rounded=0;" vertex="1" parent="1">
          <mxGeometry x="310" y="320" width="60" height="40" as="geometry" />
        </mxCell>
        <mxCell id="ztzlu6m_4G3TFfj7xGYu-39" value="&lt;font style=&quot;font-size: 9px;&quot;&gt;Sensor&amp;nbsp;&lt;/font&gt;&lt;div&gt;&lt;font style=&quot;font-size: 9px;&quot;&gt;Data&lt;/font&gt;&lt;/div&gt;" style="text;html=1;whiteSpace=wrap;strokeColor=none;fillColor=none;align=center;verticalAlign=middle;rounded=0;shadow=1;" vertex="1" parent="1">
          <mxGeometry x="280" y="250" width="40" height="30" as="geometry" />
        </mxCell>
      </root>
    </mxGraphModel>
  </diagram>
</mxfile>
